ffmpeg started on 2016-11-26 at 05:16:53
Report written to "Output/NVENCh264/results/ffmpeg/Tsintelbd14000k.log"
Command line:
Tools/ffmpeg/ffmpeg -i Output/NVENCh264/encoded/sintelbd14000k.mkv -c:v rawvideo -pix_fmt yuv420p Output/NVENCh264/transcoded/sintelbd14000k.yuv
ffmpeg version N-82227-gdb23fde Copyright (c) 2000-2016 the FFmpeg developers
  built with gcc 5.4.0 (Ubuntu 5.4.0-6ubuntu1~16.04.2) 20160609
  configuration: --prefix=/home/jaroslav/ffmpeg_build --pkg-config-flags=--static --extra-cflags=-I/home/jaroslav/ffmpeg_build/include --extra-ldflags=-L/home/jaroslav/ffmpeg_build/lib --bindir=/home/jaroslav/bin --enable-gpl --enable-libass --enable-libfdk-aac --enable-libfreetype --enable-libmp3lame --enable-libopus --enable-libtheora --enable-libvorbis --enable-libvpx --enable-libx264 --enable-libx265 --enable-nvenc --enable-libmfx --enable-libxvid --enable-libgsm --enable-libopencore-amrnb --enable-version3 --enable-nonfree
  libavutil      55. 35.100 / 55. 35.100
  libavcodec     57. 66.101 / 57. 66.101
  libavformat    57. 57.100 / 57. 57.100
  libavdevice    57.  2.100 / 57.  2.100
  libavfilter     6. 66.100 /  6. 66.100
  libswscale      4.  3.100 /  4.  3.100
  libswresample   2.  4.100 /  2.  4.100
  libpostproc    54.  2.100 / 54.  2.100
Input #0, matroska,webm, from 'Output/NVENCh264/encoded/sintelbd14000k.mkv':
  Metadata:
    ENCODER         : Lavf57.57.100
  Duration: 00:00:20.83, start: 0.000000, bitrate: 13342 kb/s
    Stream #0:0: Video: h264 (Main), yuv420p(progressive), 4096x1744 [SAR 1:1 DAR 256:109], 24 fps, 24 tbr, 1k tbn, 48 tbc (default)
    Metadata:
      ENCODER         : Lavc57.66.101 h264_nvenc
      DURATION        : 00:00:20.834000000
Output #0, rawvideo, to 'Output/NVENCh264/transcoded/sintelbd14000k.yuv':
  Metadata:
    encoder         : Lavf57.57.100
    Stream #0:0: Video: rawvideo (I420 / 0x30323449), yuv420p, 4096x1744 [SAR 1:1 DAR 256:109], q=2-31, 200 kb/s, 24 fps, 24 tbn, 24 tbc (default)
    Metadata:
      DURATION        : 00:00:20.834000000
      encoder         : Lavc57.66.101 rawvideo
Stream mapping:
  Stream #0:0 -> #0:0 (h264 (native) -> rawvideo (native))
Press [q] to stop, [?] for help
frame=   19 fps=0.0 q=-0.0 size=  198816kB time=00:00:00.79 bitrate=2057305.2kbits/s speed=1.54x    frame=   39 fps= 38 q=-0.0 size=  408096kB time=00:00:01.62 bitrate=2057306.1kbits/s speed=1.59x    frame=   59 fps= 39 q=-0.0 size=  617376kB time=00:00:02.45 bitrate=2057306.4kbits/s speed=1.61x    frame=   79 fps= 39 q=-0.0 size=  826656kB time=00:00:03.29 bitrate=2057305.9kbits/s speed=1.62x    frame=   99 fps= 39 q=-0.0 size= 1035936kB time=00:00:04.12 bitrate=2057306.1kbits/s speed=1.63x    frame=  119 fps= 39 q=-0.0 size= 1245216kB time=00:00:04.95 bitrate=2057306.3kbits/s speed=1.63x    frame=  139 fps= 39 q=-0.0 size= 1454496kB time=00:00:05.79 bitrate=2057306.0kbits/s speed=1.63x    frame=  160 fps= 39 q=-0.0 size= 1674240kB time=00:00:06.66 bitrate=2057306.0kbits/s speed=1.63x    frame=  181 fps= 39 q=-0.0 size= 1893984kB time=00:00:07.54 bitrate=2057306.0kbits/s speed=1.64x    frame=  201 fps= 39 q=-0.0 size= 2103264kB time=00:00:08.37 bitrate=2057306.1kbits/s speed=1.64x    frame=  221 fps= 39 q=-0.0 size= 2312544kB time=00:00:09.20 bitrate=2057306.2kbits/s speed=1.64x    frame=  241 fps= 39 q=-0.0 size= 2521824kB time=00:00:10.04 bitrate=2057306.0kbits/s speed=1.64x    frame=  261 fps= 39 q=-0.0 size= 2731104kB time=00:00:10.87 bitrate=2057306.1kbits/s speed=1.64x    frame=  282 fps= 39 q=-0.0 size= 2950848kB time=00:00:11.75 bitrate=2057306.1kbits/s speed=1.64x    frame=  302 fps= 39 q=-0.0 size= 3160128kB time=00:00:12.58 bitrate=2057306.2kbits/s speed=1.64x    frame=  322 fps= 39 q=-0.0 size= 3369408kB time=00:00:13.41 bitrate=2057306.1kbits/s speed=1.65x    frame=  342 fps= 39 q=-0.0 size= 3578688kB time=00:00:14.25 bitrate=2057306.1kbits/s speed=1.65x    frame=  362 fps= 39 q=-0.0 size= 3787968kB time=00:00:15.08 bitrate=2057306.2kbits/s speed=1.65x    frame=  382 fps= 39 q=-0.0 size= 3997248kB time=00:00:15.91 bitrate=2057306.1kbits/s speed=1.65x    frame=  402 fps= 39 q=-0.0 size= 4206528kB time=00:00:16.75 bitrate=2057306.1kbits/s speed=1.64x    frame=  422 fps= 39 q=-0.0 size= 4415808kB time=00:00:17.58 bitrate=2057306.2kbits/s speed=1.65x    frame=  442 fps= 39 q=-0.0 size= 4625088kB time=00:00:18.41 bitrate=2057306.1kbits/s speed=1.64x    frame=  462 fps= 39 q=-0.0 size= 4834368kB time=00:00:19.25 bitrate=2057306.1kbits/s speed=1.64x    frame=  482 fps= 39 q=-0.0 size= 5043648kB time=00:00:20.08 bitrate=2057306.1kbits/s speed=1.64x    frame=  500 fps= 39 q=-0.0 Lsize= 5232000kB time=00:00:20.83 bitrate=2057306.1kbits/s speed=1.63x    
video:5232000kB audio:0kB subtitle:0kB other streams:0kB global headers:0kB muxing overhead: 0.000000%
